<svg xmlns="http://www.w3.org/2000/svg" xmlns:xlink="http://www.w3.org/1999/xlink" viewBox="0 0 16 16"><defs><path id="a" d="m10 4.4 1.93.51a1 1 0 0 1 .71 1.23l-.52 1.93a1 1 0 0 1-1.22.7l-1.93-.51a1 1 0 0 1-.71-1.23l.52-1.93A1 1 0 0 1 10 4.4"/></defs><defs><mask id="cut" maskUnits="userSpaceOnUse" x="0" y="0" width="16" height="16"><rect width="16" height="16" fill="#fff"/><path d="m13.21 8.55.11.06q.27.16.57.06l.63-.23a.6.6 0 0 1 .72.25l.68 1.12c.14.24.09.54-.14.72l-.52.41a.6.6 0 0 0-.23.5v.12q0 .31.23.5l.53.41c.22.18.27.48.13.72l-.68 1.12a.6.6 0 0 1-.72.25l-.63-.23a.7.7 0 0 0-.57.06l-.11.06q-.27.15-.34.44l-.11.64a.6.6 0 0 1-.58.47h-1.36a.6.6 0 0 1-.58-.47l-.11-.64a.6.6 0 0 0-.34-.44l-.11-.06a.7.7 0 0 0-.57-.06l-.64.23a.6.6 0 0 1-.71-.25l-.68-1.12a.55.55 0 0 1 .13-.72l.53-.41a.6.6 0 0 0 .23-.5v-.12a.6.6 0 0 0-.23-.5l-.53-.41a.55.55 0 0 1-.13-.72l.68-1.12a.6.6 0 0 1 .72-.25l.63.23q.3.1.57-.06l.11-.06q.27-.15.34-.44l.11-.64c.05-.27.3-.47.58-.47h1.36c.29 0 .53.2.58.47l.11.64q.06.29.34.44M11.5 10a1.5 1.5 0 1 0 0 3 1.5 1.5 0 0 0 0-3" fill="#000" stroke="#000" stroke-width="1.15" stroke-linejoin="round" stroke-linecap="round"/></mask></defs><g mask="url(#cut)"><path fill="#7dd3fc" fill-opacity=".4" fill-rule="evenodd" d="m6.91.46 5.8 1.55a4 4 0 0 1 2.83 4.9l-1.55 5.8a4 4 0 0 1-4.9 2.83l-5.8-1.55a4 4 0 0 1-2.83-4.9l1.55-5.8A4 4 0 0 1 6.91.46"/><path fill="#f8fafc" fill-opacity="0.1" d="m6.91.46 5.8 1.55a4 4 0 0 1 2.83 4.9l-1.55 5.8a4 4 0 0 1-4.9 2.83l-5.8-1.55a4 4 0 0 1-2.83-4.9l1.55-5.8A4 4 0 0 1 6.91.46M2.98 3.55l-1.55 5.8a3 3 0 0 0 2.12 3.67l5.8 1.55a3 3 0 0 0 3.67-2.12l1.55-5.8a3 3 0 0 0-2.12-3.67l-5.8-1.55-.3-.07a3 3 0 0 0-3.37 2.19"/><use xlink:href="#a" fill="#7dd3fc" fill-rule="evenodd"/><use xlink:href="#a" fill="#f8fafc" fill-opacity="0.1" fill-rule="evenodd"/></g><path fill="#cbd5e1" fill-rule="evenodd" d="m13.21 8.55.11.06q.27.16.57.06l.63-.23a.6.6 0 0 1 .72.25l.68 1.12c.14.24.09.54-.14.72l-.52.41a.6.6 0 0 0-.23.5v.12q0 .31.23.5l.53.41c.22.18.27.48.13.72l-.68 1.12a.6.6 0 0 1-.72.25l-.63-.23a.7.7 0 0 0-.57.06l-.11.06q-.27.15-.34.44l-.11.64a.6.6 0 0 1-.58.47h-1.36a.6.6 0 0 1-.58-.47l-.11-.64a.6.6 0 0 0-.34-.44l-.11-.06a.7.7 0 0 0-.57-.06l-.64.23a.6.6 0 0 1-.71-.25l-.68-1.12a.55.55 0 0 1 .13-.72l.53-.41a.6.6 0 0 0 .23-.5v-.12a.6.6 0 0 0-.23-.5l-.53-.41a.55.55 0 0 1-.13-.72l.68-1.12a.6.6 0 0 1 .72-.25l.63.23q.3.1.57-.06l.11-.06q.27-.15.34-.44l.11-.64c.05-.27.3-.47.58-.47h1.36c.29 0 .53.2.58.47l.11.64q.06.29.34.44M11.5 10a1.5 1.5 0 1 0 0 3 1.5 1.5 0 0 0 0-3"/><path fill="#f8fafc" fill-opacity="0.1" fill-rule="evenodd" d="m13.21 8.55.11.06q.27.16.57.06l.63-.23a.6.6 0 0 1 .72.25l.68 1.12c.14.24.09.54-.14.72l-.52.41a.6.6 0 0 0-.23.5v.12q0 .31.23.5l.53.41c.22.18.27.48.13.72l-.68 1.12a.6.6 0 0 1-.72.25l-.63-.23a.7.7 0 0 0-.57.06l-.11.06q-.27.15-.34.44l-.11.64a.6.6 0 0 1-.58.47h-1.36a.6.6 0 0 1-.58-.47l-.11-.64a.6.6 0 0 0-.34-.44l-.11-.06a.7.7 0 0 0-.57-.06l-.64.23a.6.6 0 0 1-.71-.25l-.68-1.12a.55.55 0 0 1 .13-.72l.53-.41a.6.6 0 0 0 .23-.5v-.12a.6.6 0 0 0-.23-.5l-.53-.41a.55.55 0 0 1-.13-.72l.68-1.12a.6.6 0 0 1 .72-.25l.63.23q.3.1.57-.06l.11-.06q.27-.15.34-.44l.11-.64c.05-.27.3-.47.58-.47h1.36c.29 0 .53.2.58.47l.11.64q.06.29.34.44M11.5 10a1.5 1.5 0 1 0 0 3 1.5 1.5 0 0 0 0-3"/></svg>