<svg xmlns="http://www.w3.org/2000/svg" viewBox="0 0 16 16"><circle cx="8" cy="8" r="7" fill="#93c5fd" fill-opacity=".4" fill-rule="evenodd"/><path fill="#f8fafc" fill-opacity="0.1" d="M15 8A7 7 0 1 1 1 8a7 7 0 0 1 14 0M2 8a6 6 0 1 0 12 0A6 6 0 0 0 2 8"/><circle cx="8" cy="8" r="3" fill="#93c5fd" fill-rule="evenodd"/><path fill="#f8fafc" fill-opacity="0.1" d="M11 8a3 3 0 1 1-6 0 3 3 0 0 1 6 0M6 8a2 2 0 1 0 4 0 2 2 0 0 0-4 0"/><circle cx="12" cy="3" r="1.5" fill="#93c5fd" fill-rule="evenodd"/></svg>