<svg xmlns="http://www.w3.org/2000/svg" viewBox="0 0 16 16"><path fill="#4ade80" d="M5 11 0 8.5v-7l5 3z"/><path fill="#1e293b" fill-opacity="0.1" d="M5 4.5V11L0 8.5v-7zM1 7.88l3 1.5V5.07l-3-1.8z"/><path fill="#4ade80" d="M10 2v6.5l6-3z"/><path fill="#1e293b" fill-opacity="0.1" d="m16 5.5-6 3V2zm-5 1.38 2.9-1.45L11 3.74z"/><path fill="#4ade80" fill-opacity=".4" d="m5 11 5-2.5V2L5 4.5z"/><path fill="#1e293b" fill-opacity="0.1" d="M10 8.5 5 11V4.5L10 2zM6 5.12v4.26l3-1.5V3.62z"/><path fill="#4ade80" fill-opacity=".4" d="m10 15 6-3V5.5l-6 3z"/><path fill="#1e293b" fill-opacity="0.1" d="m16 12-6 3V8.5l6-3zm-5-2.88v4.26l4-2V7.12z"/></svg>