<svg xmlns="http://www.w3.org/2000/svg" viewBox="0 0 16 16"><path fill="#60a5fa" fill-opacity=".4" d="m7.72 10-5.3-1.43a.75.75 0 0 0-.93.53l-.64 2.42c-.11.4.13.81.53.92l10.14 2.71c.4.11.81-.13.92-.53l1.16-4.34a.75.75 0 0 0-.53-.92l-3.38-.9a.75.75 0 0 0-.92.52l-.13.49c-.1.4-.52.63-.92.53"/><path fill="#1e293b" fill-opacity="0.1" d="m9.69 8.45 3.38.9c.4.12.64.53.53.93l-1.16 4.34a.75.75 0 0 1-.92.53L1.38 12.44a.75.75 0 0 1-.53-.92l.64-2.42c.11-.4.52-.63.92-.53L7.72 10c.4.1.82-.13.92-.53l.13-.49c.1-.4.52-.63.92-.53m-.08 1.28a1.75 1.75 0 0 1-2.14 1.23L2.39 9.6l-.51 1.94 9.66 2.58 1.03-3.86-2.9-.78z"/><path fill="#60a5fa" d="m8.28 6 5.3 1.43c.4.1.82-.13.93-.53l.64-2.42a.75.75 0 0 0-.53-.92L4.48.85a.75.75 0 0 0-.92.53L2.4 5.72c-.1.4.13.81.53.92l3.38.9c.4.11.81-.12.92-.52l.13-.49c.1-.4.52-.63.92-.53"/><path fill="#1e293b" fill-opacity="0.1" d="m4.48.85 10.14 2.71c.4.11.64.52.53.92l-.64 2.42a.76.76 0 0 1-.92.53L8.28 6a.75.75 0 0 0-.92.53l-.13.49c-.1.4-.52.63-.92.53l-3.38-.9a.75.75 0 0 1-.53-.93l1.16-4.34c.11-.4.52-.64.92-.53M3.43 5.74l2.9.78.06-.25a1.75 1.75 0 0 1 2.14-1.23l5.08 1.36.51-1.94-9.66-2.58z"/></svg>