<svg xmlns="http://www.w3.org/2000/svg" viewBox="0 0 16 16"><defs><mask id="cut" maskUnits="userSpaceOnUse" x="0" y="0" width="16" height="16"><rect width="16" height="16" fill="#fff"/><g transform="translate(0.8 -1.7) scale(1.35)"><path d="M8 7.2a1.5 1.5 0 0 1 1.5 1.5v.6c.28 0 .5.22.5.5v1.7c0 .28-.22.5-.5.5H6.5a.5.5 0 0 1-.5-.5v-1.7c0-.28.22-.5.5-.5v-.6A1.5 1.5 0 0 1 8 7.2m0 .9a.6.6 0 0 0-.6.6v.6h1.2v-.6a.6.6 0 0 0-.6-.6" fill="#000" stroke="#000" stroke-width="0.95" stroke-linejoin="round" stroke-linecap="round"/></g></mask></defs><g mask="url(#cut)"><path fill="#ca8a04" fill-opacity=".4" fill-rule="evenodd" d="M9.5 3H12a3 3 0 0 1 3 3v.76a3 3 0 0 0-.44-.32A3 3 0 0 0 12 5H4a3 3 0 0 0-3 3V4a3 3 0 0 1 3-3h1.5C8 1 8 3 9.5 3"/><path fill="#475569" fill-opacity="0.1" fill-rule="evenodd" d="M9.5 3H12a3 3 0 0 1 3 3v.76a3 3 0 0 0-.44-.32A3 3 0 0 0 12 5H4a3 3 0 0 0-3 3V4a3 3 0 0 1 3-3h1.5C8 1 8 3 9.5 3"/><path fill="#ca8a04" fill-opacity=".8" fill-rule="evenodd" d="M12 5a3 3 0 0 1 3 3v4a3 3 0 0 1-3 3H4a3 3 0 0 1-3-3V8a3 3 0 0 1 3-3z"/><path fill="#475569" fill-opacity="0.1" fill-rule="evenodd" d="M12 5a3 3 0 0 1 3 3v4a3 3 0 0 1-3 3H4a3 3 0 0 1-3-3V8a3 3 0 0 1 3-3zm0 1H4a2 2 0 0 0-2 2v4c0 1.1.9 2 2 2h8a2 2 0 0 0 2-2V8a2 2 0 0 0-2-2z"/></g><g transform="translate(0.8 -1.7) scale(1.35)"><path fill="#ca8a04" fill-rule="evenodd" d="M8 7.2a1.5 1.5 0 0 1 1.5 1.5v.6c.28 0 .5.22.5.5v1.7c0 .28-.22.5-.5.5H6.5a.5.5 0 0 1-.5-.5v-1.7c0-.28.22-.5.5-.5v-.6A1.5 1.5 0 0 1 8 7.2m0 .9a.6.6 0 0 0-.6.6v.6h1.2v-.6a.6.6 0 0 0-.6-.6"/><path fill="#475569" fill-opacity="0.1" fill-rule="evenodd" d="M8 7.2a1.5 1.5 0 0 1 1.5 1.5v.6c.28 0 .5.22.5.5v1.7c0 .28-.22.5-.5.5H6.5a.5.5 0 0 1-.5-.5v-1.7c0-.28.22-.5.5-.5v-.6A1.5 1.5 0 0 1 8 7.2m0 .9a.6.6 0 0 0-.6.6v.6h1.2v-.6a.6.6 0 0 0-.6-.6"/></g></svg>